<svg width="16" height="16" viewBox="0 0 16 16" fill="none" xmlns="http://www.w3.org/2000/svg">
<path d="M9.69394 3.86018C9.69394 4.79389 8.9341 5.55373 8.00039 5.55373C7.06668 5.55373 6.30683 4.79389 6.30683 3.86018C6.30683 2.92647 7.06668 2.16663 8.00039 2.16663C8.9341 2.16663 9.69394 2.92647 9.69394 3.86018Z" fill="#0074E8"/>
<path d="M5.55399 4.2365C5.55399 4.96397 4.96426 5.5537 4.23678 5.5537C3.50931 5.5537 2.91958 4.96397 2.91958 4.2365C2.91958 3.50902 3.50931 2.91929 4.23678 2.91929C4.96426 2.91929 5.55399 3.50902 5.55399 4.2365Z" fill="#0074E8"/>
<path d="M5.17775 7.99994V10.4462C5.17775 10.6487 5.28652 10.8304 5.45286 10.9304L5.36555 12.1531C5.3584 12.2517 5.27636 12.3279 5.17775 12.3279H3.29603C3.19743 12.3279 3.11538 12.2517 3.10823 12.1533L2.92777 9.62575L2.27105 9.29739C2.20726 9.2654 2.16699 9.20029 2.16699 9.12898V7.6236C2.16699 6.89725 2.75785 6.30639 3.4842 6.30639H4.98958C5.27899 6.30639 5.54601 6.40142 5.76372 6.56023C5.40168 6.933 5.17775 7.44051 5.17775 7.99994Z" fill="#0074E8"/>
<path d="M11.7639 5.5537C12.4914 5.5537 13.0811 4.96397 13.0811 4.2365C13.0811 3.50902 12.4914 2.91929 11.7639 2.91929C11.0364 2.91929 10.4467 3.50902 10.4467 4.2365C10.4467 4.96397 11.0364 5.5537 11.7639 5.5537Z" fill="#0074E8"/>
<path d="M10.8228 7.99994V10.4462C10.8228 10.6487 10.7141 10.8304 10.5477 10.9304L10.635 12.1531C10.6422 12.2517 10.7242 12.3279 10.8228 12.3279H12.7045C12.8032 12.3279 12.8852 12.2517 12.8923 12.1533L13.0728 9.62575L13.7295 9.29739C13.7933 9.2654 13.8336 9.20029 13.8336 9.12898V7.6236C13.8336 6.89725 13.2427 6.30639 12.5164 6.30639H11.011C10.7216 6.30639 10.4546 6.40142 10.2369 6.56023C10.5989 6.933 10.8228 7.44051 10.8228 7.99994Z" fill="#0074E8"/>
<path d="M8.75318 6.30639H7.2478C6.31409 6.30639 5.55425 7.06623 5.55425 7.99994V10.4462C5.55425 10.5359 5.61748 10.6131 5.70554 10.6306L6.50452 10.7904L6.68366 13.6568C6.68987 13.756 6.7721 13.8333 6.87146 13.8333H9.12953C9.22888 13.8333 9.31112 13.756 9.31733 13.6568L9.49647 10.7905L10.2954 10.6308C10.3835 10.6131 10.4467 10.5359 10.4467 10.4462V7.99994C10.4467 7.06623 9.6869 6.30639 8.75318 6.30639Z" fill="#0074E8"/>
</svg>
